<?xml version="1.0" encoding="UTF-8" standalone="no"?>
<svg
   fill="none"
   viewBox="0 0 16384 16384"
   version="1.1"
   id="svg1"
   xml:space="preserve"
   width="16384"
   height="16384"
   xmlns:xlink="http://www.w3.org/1999/xlink"
   xmlns="http://www.w3.org/2000/svg"
   xmlns:svg="http://www.w3.org/2000/svg"><defs
     id="defs1"><linearGradient
       id="swatch7"><stop
         style="stop-color:#000000;stop-opacity:1;"
         offset="0"
         id="stop7" /></linearGradient><linearGradient
       xlink:href="#swatch7"
       id="linearGradient7"
       x1="-81.499977"
       y1="-17.992785"
       x2="22.56085"
       y2="-17.992785"
       gradientUnits="userSpaceOnUse" /><linearGradient
       xlink:href="#swatch7"
       id="linearGradient8"
       gradientUnits="userSpaceOnUse"
       x1="-81.499977"
       y1="-17.992785"
       x2="22.56085"
       y2="-17.992785" /><linearGradient
       xlink:href="#swatch7"
       id="linearGradient9"
       gradientUnits="userSpaceOnUse"
       x1="-81.499977"
       y1="-17.992785"
       x2="22.56085"
       y2="-17.992785" /><linearGradient
       xlink:href="#swatch7"
       id="linearGradient10"
       gradientUnits="userSpaceOnUse"
       x1="-81.499977"
       y1="-17.992785"
       x2="22.56085"
       y2="-17.992785" /><linearGradient
       xlink:href="#swatch7"
       id="linearGradient11"
       gradientUnits="userSpaceOnUse"
       x1="-81.499977"
       y1="-17.992785"
       x2="22.56085"
       y2="-17.992785" /><linearGradient
       xlink:href="#swatch7"
       id="linearGradient12"
       gradientUnits="userSpaceOnUse"
       x1="-81.499977"
       y1="-17.992785"
       x2="22.56085"
       y2="-17.992785" /><linearGradient
       xlink:href="#swatch7"
       id="linearGradient13"
       gradientUnits="userSpaceOnUse"
       x1="-81.499977"
       y1="-17.992785"
       x2="22.56085"
       y2="-17.992785" /></defs><style
     id="style1">
        path { fill: #000; }
        @media (prefers-color-scheme: dark) {
            path { fill: #FFF; }
        }
    </style><g
     id="g7"
     style="fill:url(#linearGradient7);stroke:none;stroke-width:2.65025;stroke-dasharray:none;stroke-opacity:1"
     transform="matrix(0.75464629,0,0,0.75464629,86.239097,77.578189)"><path
       style="fill:url(#linearGradient8);fill-opacity:1;stroke:none;stroke-width:2.65025;stroke-linecap:round;stroke-linejoin:round;stroke-dasharray:none;stroke-opacity:1;paint-order:stroke markers fill"
       d="m -44.39117,-97.500233 c 6.48712,22.741233 -5.94527,28.787607 -5.94527,38.800687 -10e-6,16.034857 9.64638,12.608266 20.65198,23.781067 7.76766,7.885673 10.36896,21.418227 8.44854,31.916694 -3.6185,-12.553217 -8.44854,-20.783716 -19.86404,-24.860994 -13.57775,-4.849568 -26.92248,-2.456516 -27.85266,-6.160845 -0.80091,-3.189531 8.23295,-3.50882 7.97728,-8.404666 -0.20866,-3.995545 -6.57108,-4.12858 -6.57108,-17.2309 0,-13.113826 22.1984,-25.069785 23.15525,-37.841043 z"
       id="path2-1" /><path
       style="fill:url(#linearGradient9);fill-opacity:1;stroke:none;stroke-width:2.65025;stroke-linecap:round;stroke-linejoin:round;stroke-dasharray:none;stroke-opacity:1;paint-order:stroke markers fill"
       d="m -17.19629,1.303689 c 3.70726,-11.753547 3.19591,-27.535371 -7.54235,-40.779828 15.85172,-7.286678 28.89103,-22.627052 28.37969,-32.470459 9.71557,15.340374 16.23523,35.538533 8.05369,50.623234 C 3.51321,-6.238662 -17.19629,1.303689 -17.19629,1.303689 Z"
       id="path3-5" /><path
       style="fill:url(#linearGradient10);fill-opacity:1;stroke:none;stroke-width:2.65025;stroke-linecap:round;stroke-linejoin:round;stroke-dasharray:none;stroke-opacity:1;paint-order:stroke markers fill"
       d="m -17.70764,-60.824827 c -9.85697,-5.100931 -26.97751,4.32504 -22.75488,10.573851 6.2072,9.18568 15.22391,-10.619039 22.75488,-10.573851 z"
       id="path4-2" /><path
       style="fill:url(#linearGradient11);fill-opacity:1;stroke:none;stroke-width:2.65025;stroke-linecap:round;stroke-linejoin:round;stroke-dasharray:none;stroke-opacity:1;paint-order:stroke markers fill"
       d="m -43.27493,-65.938285 c 0.2501,-6.508175 7.33944,-16.337921 23.14901,-15.979556 14.5228,0.329196 15.46626,17.002248 15.46626,17.002248 -9.32555,-10.083768 -26.67158,-9.52981 -38.61527,-1.022692 z"
       id="path5-7" /><path
       style="fill:url(#linearGradient12);fill-opacity:1;stroke:none;stroke-width:2.65025;stroke-linecap:round;stroke-linejoin:round;stroke-dasharray:none;stroke-opacity:1;paint-order:stroke markers fill"
       d="m -17.2078,11.402769 c 6.09738,-2.55673 11.85385,-5.113459 17.26943,-5.624805 -4.72129,1.339768 -10.32865,2.843729 -13.29499,6.903169 15.4256,4.985622 26.72377,0 35.79421,-13.550664 C 3.00187,-6.622175 -8.4723,-2.957522 -17.2078,11.402769 Z"
       id="path6-6" /><path
       style="fill:url(#linearGradient13);fill-opacity:1;stroke:none;stroke-width:2.65025;stroke-linecap:round;stroke-linejoin:round;stroke-dasharray:none;stroke-opacity:1;paint-order:stroke markers fill"
       d="m -25.23861,61.514662 c 6.74839,-15.98674 22.6749,-55.964188 -26.85703,-73.42419 10.48953,2.7672 17.3938,4.729949 26.20647,11.551343 0,0 -4.44394,-20.728208 -22.37138,-23.521907 -24.32503,-3.79066 -33.23747,-9.843407 -33.23747,-9.843407 -0.17558,9.843407 11.48056,22.265802 28.63536,28.507529 40.16651,14.614474 32.73674,44.870602 27.62405,66.730632 z"
       id="path7-1" /></g></svg>
