<?xml version="1.0" encoding="UTF-8" standalone="no"?>
<!-- Created with Inkscape (http://www.inkscape.org/) -->

<svg
   width="200"
   height="30"
   viewBox="0 0 52.916665 7.9375"
   version="1.1"
   id="svg1"
   inkscape:version="1.4.2 (f4327f4, 2025-05-13)"
   sodipodi:docname="logo_original.svg"
   inkscape:export-filename="logo.svg"
   inkscape:export-xdpi="96"
   inkscape:export-ydpi="96"
   xmlns:inkscape="http://www.inkscape.org/namespaces/inkscape"
   xmlns:sodipodi="http://sodipodi.sourceforge.net/DTD/sodipodi-0.dtd"
   xmlns="http://www.w3.org/2000/svg"
   xmlns:svg="http://www.w3.org/2000/svg">
  <sodipodi:namedview
     id="namedview1"
     pagecolor="#ffffff"
     bordercolor="#000000"
     borderopacity="0.25"
     inkscape:showpageshadow="2"
     inkscape:pageopacity="0.0"
     inkscape:pagecheckerboard="0"
     inkscape:deskcolor="#d1d1d1"
     inkscape:document-units="px"
     inkscape:zoom="2.4940534"
     inkscape:cx="194.0616"
     inkscape:cy="106.85417"
     inkscape:window-width="1920"
     inkscape:window-height="991"
     inkscape:window-x="-9"
     inkscape:window-y="-9"
     inkscape:window-maximized="1"
     inkscape:current-layer="layer1" />
  <defs
     id="defs1" />
  <g
     inkscape:label="Capa 1"
     inkscape:groupmode="layer"
     id="layer1">
    <path
       style="font-size:10.6966px;line-height:1.1;font-family:'Times New Roman';-inkscape-font-specification:'Times New Roman, ';text-align:center;letter-spacing:-0.267415px;text-anchor:middle;fill:#fdd3bc;stroke-width:2.67415;stroke-linecap:round;paint-order:markers stroke fill"
       d="M 2.6636202,6.9197163 Q 1.9271844,7.4890178 1.7391582,7.5778079 1.457119,7.7083817 1.1385191,7.7083817 0.64233889,7.7083817 0.31851604,7.36889 -8.385675e-5,7.0293983 -8.385675e-5,6.4757657 q 0,-0.3499376 0.15668847675,-0.6058621 Q 0.37074554,5.514743 0.89826341,5.2013661 1.4310042,4.8879891 2.6636202,4.4388155 V 4.2507893 q 0,-0.715544 -0.2298097,-0.9819144 -0.2245868,-0.2663705 -0.6580916,-0.2663705 -0.3290458,0 -0.5222949,0.1775803 Q 1.0549519,3.357665 1.0549519,3.5874748 l 0.010446,0.302931 q 0,0.2402557 -0.1253508,0.3708294 -0.12012783,0.1305737 -0.3185999,0.1305737 -0.19324912,0 -0.3185999,-0.1357966 -0.12012783,-0.1357967 -0.12012783,-0.3708294 0,-0.4491737 0.45961952,-0.825226 0.45961951,-0.3760524 1.29006841,-0.3760524 0.6371998,0 1.0445899,0.214141 0.308154,0.1619114 0.4543966,0.506626 0.094013,0.2245869 0.094013,0.9192391 v 1.6243372 q 0,0.6842063 0.026115,0.8408948 0.026115,0.1514655 0.083567,0.203695 0.062675,0.05223 0.1410196,0.05223 0.083567,0 0.1462426,-0.036561 0.1096819,-0.067898 0.4230589,-0.3812753 v 0.2924851 q -0.5849703,0.7834424 -1.1177112,0.7834424 -0.2559245,0 -0.40739,-0.1775802 Q 2.6688432,7.3479982 2.6636202,6.9197163 Z m 0,-0.3394917 V 4.7574154 Q 1.8749549,5.0707923 1.6451451,5.2013661 1.2325322,5.4311758 1.0549519,5.6818774 0.87737161,5.9325789 0.87737161,6.2302871 q 0,0.3760523 0.22458679,0.6267539 0.2245868,0.2454786 0.517072,0.2454786 0.3969441,0 1.0445898,-0.522295 z M 5.8329056,2.6839045 v 1.0759276 q 0.6006391,-1.0759276 1.232616,-1.0759276 0.2872622,0 0.4752884,0.1775803 0.1880261,0.1723573 0.1880261,0.4021671 0,0.203695 -0.1357966,0.3447147 -0.1357967,0.1410196 -0.3238229,0.1410196 -0.1828032,0 -0.412613,-0.1775803 -0.2245868,-0.1828032 -0.3342687,-0.1828032 -0.094013,0 -0.203695,0.104459 -0.2350328,0.2141409 -0.4857343,0.7050981 v 2.2928747 q 0,0.3969442 0.099236,0.6006392 0.067898,0.1410196 0.2402557,0.2350327 0.1723573,0.094013 0.4961801,0.094013 V 7.6091456 H 4.2190143 V 7.4211195 q 0.3656064,0 0.5431867,-0.1149049 0.1305737,-0.083567 0.1828032,-0.2663704 0.026115,-0.08879 0.026115,-0.5066261 v -1.854147 q 0,-0.8356718 -0.036561,-0.9923603 -0.031338,-0.1619114 -0.1253508,-0.2350327 -0.08879,-0.073121 -0.2245868,-0.073121 -0.1619114,0 -0.3656064,0.078344 L 4.1667848,3.2688749 5.6135417,2.6839045 Z m 4.2347674,0 q 1.086373,0 1.744465,0.825226 0.558855,0.7050982 0.558855,1.6191143 0,0.6424227 -0.308154,1.3005143 -0.308154,0.6580916 -0.85134,0.9923604 -0.537964,0.3342687 -1.201279,0.3342687 -1.0811502,0 -1.71835,-0.8617866 -0.5379638,-0.7259899 -0.5379638,-1.6295601 0,-0.6580916 0.3238228,-1.3057373 Q 8.4067748,3.3054355 8.9395157,2.9972815 9.4722565,2.6839045 10.067673,2.6839045 Z M 9.9057613,3.0233962 q -0.2768164,0 -0.5588556,0.1671344 Q 9.0700894,3.352442 8.8977321,3.765055 8.7253747,4.177668 8.7253747,4.8253137 q 0,1.0445899 0.412613,1.8019175 0.417836,0.7573276 1.0968193,0.7573276 0.506626,0 0.835672,-0.4178359 0.329046,-0.4178359 0.329046,-1.436311 0,-1.2743996 -0.54841,-2.0056125 Q 10.480286,3.0233962 9.9057613,3.0233962 Z m 4.3235577,0.6789834 q 0.522295,-0.5222949 0.616308,-0.6006391 0.235033,-0.1984721 0.506626,-0.308154 0.271593,-0.109682 0.537964,-0.109682 0.449174,0 0.772996,0.2611475 0.323823,0.2611475 0.433505,0.7573276 0.537964,-0.6267539 0.908793,-0.820003 0.37083,-0.1984721 0.762551,-0.1984721 0.381275,0 0.67376,0.1984721 0.297708,0.1932491 0.470066,0.6371998 0.114905,0.3029311 0.114905,0.9505768 v 2.057842 q 0,0.4491736 0.0679,0.616308 0.05223,0.1149048 0.193249,0.198472 0.14102,0.078344 0.45962,0.078344 V 7.6091456 H 18.386787 V 7.4211195 h 0.09924 q 0.308154,0 0.480511,-0.1201279 0.120128,-0.083567 0.172357,-0.2663704 0.02089,-0.08879 0.02089,-0.506626 v -2.057842 q 0,-0.5849703 -0.14102,-0.825226 -0.203695,-0.3342687 -0.652868,-0.3342687 -0.276817,0 -0.558856,0.1410196 -0.276816,0.1357967 -0.67376,0.511849 l -0.01045,0.057452 0.01045,0.2245869 v 2.2824288 q 0,0.4909572 0.05223,0.611085 0.05745,0.1201278 0.208918,0.203695 0.151466,0.078344 0.517072,0.078344 V 7.6091456 H 15.493273 V 7.4211195 q 0.396944,0 0.543186,-0.094013 0.151466,-0.094013 0.208918,-0.2820393 0.02611,-0.08879 0.02611,-0.5170719 v -2.057842 q 0,-0.5849703 -0.172357,-0.8408948 -0.22981,-0.3342688 -0.642423,-0.3342688 -0.282039,0 -0.558855,0.1514655 -0.433505,0.2298098 -0.668538,0.517072 v 2.5644681 q 0,0.4700654 0.06268,0.611085 0.0679,0.1410196 0.19325,0.2141409 0.130573,0.067898 0.522294,0.067898 V 7.6091456 H 12.641542 V 7.4211195 q 0.329046,0 0.45962,-0.067898 0.130574,-0.073121 0.198472,-0.2245868 0.0679,-0.1566885 0.0679,-0.6006391 V 4.6999629 q 0,-0.7886653 -0.04701,-1.0184751 -0.03656,-0.1723573 -0.114905,-0.2350327 -0.07834,-0.067898 -0.214141,-0.067898 -0.146243,0 -0.349938,0.078344 l -0.07834,-0.1880261 1.441534,-0.5849704 h 0.224587 z m 9.342811,3.2173367 q -0.736435,0.5693015 -0.924462,0.6580916 -0.282039,0.1305738 -0.600639,0.1305738 -0.49618,0 -0.820003,-0.3394917 -0.3186,-0.3394917 -0.3186,-0.8931243 0,-0.3499376 0.156689,-0.6058621 0.214141,-0.3551606 0.741659,-0.6685375 0.53274,-0.313377 1.765356,-0.7625506 V 4.2507893 q 0,-0.715544 -0.229809,-0.9819144 -0.224587,-0.2663705 -0.658092,-0.2663705 -0.329046,0 -0.522295,0.1775803 -0.198472,0.1775803 -0.198472,0.4073901 l 0.01045,0.302931 q 0,0.2402557 -0.125351,0.3708294 -0.120128,0.1305737 -0.3186,0.1305737 -0.193249,0 -0.3186,-0.1357966 -0.120127,-0.1357967 -0.120127,-0.3708294 0,-0.4491737 0.459619,-0.825226 0.45962,-0.3760524 1.290069,-0.3760524 0.637199,0 1.044589,0.214141 0.308154,0.1619114 0.454397,0.506626 0.09401,0.2245869 0.09401,0.9192391 v 1.6243372 q 0,0.6842063 0.02612,0.8408948 0.02611,0.1514655 0.08357,0.203695 0.06267,0.05223 0.14102,0.05223 0.08357,0 0.146242,-0.036561 0.109682,-0.067898 0.423059,-0.3812753 v 0.2924851 q -0.58497,0.7834424 -1.117711,0.7834424 -0.255925,0 -0.40739,-0.1775802 Q 23.577353,7.3479982 23.57213,6.9197163 Z m 0,-0.3394917 V 4.7574154 q -0.788665,0.3133769 -1.018475,0.4439507 -0.412613,0.2298097 -0.590193,0.4805113 -0.17758,0.2507015 -0.17758,0.5484097 0,0.3760523 0.224587,0.6267539 0.224586,0.2454786 0.517072,0.2454786 0.396944,0 1.044589,-0.522295 z M 28.433651,2.6839045 V 4.3134647 H 28.261294 Q 28.062822,3.5456912 27.749445,3.2688749 27.441291,2.9920585 26.96078,2.9920585 q -0.365607,0 -0.590194,0.1932492 Q 26.146,3.3785568 26.146,3.6135895 q 0,0.2924852 0.167134,0.5014031 0.161911,0.2141409 0.658092,0.4543966 l 0.76255,0.3708294 q 1.060259,0.517072 1.060259,1.3631897 0,0.6528687 -0.49618,1.0550358 -0.490958,0.3969441 -1.102043,0.3969441 -0.438727,0 -1.002806,-0.1566885 -0.172357,-0.052229 -0.282039,-0.052229 -0.120128,0 -0.188026,0.1357966 H 25.550583 V 5.9743625 h 0.172358 q 0.146242,0.7312129 0.558855,1.1020423 0.412613,0.3708294 0.924462,0.3708294 0.360384,0 0.584971,-0.208918 0.229809,-0.2141409 0.229809,-0.511849 0,-0.3603835 -0.255924,-0.6058621 Q 27.514412,5.8751265 26.757085,5.4990742 25.999757,5.1230218 25.764724,4.8200908 25.529692,4.5223827 25.529692,4.0679861 q 0,-0.5901933 0.402167,-0.9871374 0.40739,-0.3969442 1.049812,-0.3969442 0.28204,0 0.684207,0.1201279 0.26637,0.078344 0.35516,0.078344 0.08357,0 0.130574,-0.036561 0.04701,-0.036561 0.109682,-0.1619115 z m 2.673105,0.517072 v 3.1442154 q 0,0.6685375 0.146243,0.8461178 0.193249,0.2298098 0.517072,0.2298098 h 0.433505 V 7.6091456 H 29.346622 V 7.4211195 h 0.214141 q 0.208918,0 0.381276,-0.104459 0.172357,-0.104459 0.235032,-0.2820393 0.0679,-0.1775802 0.0679,-0.6894293 V 3.2009765 H 29.315285 V 2.8249242 h 0.929685 v -0.313377 q 0,-0.715544 0.229809,-1.2117242 0.22981,-0.49618017 0.699876,-0.79911122 0.475288,-0.308154 1.065481,-0.308154 0.54841,0 1.008029,0.35516054 0.302932,0.23503272 0.302932,0.52751788 0,0.1566885 -0.135797,0.2977081 -0.135797,0.1357967 -0.292485,0.1357967 -0.120128,0 -0.255925,-0.083567 -0.130574,-0.08879 -0.323823,-0.3708294 -0.193249,-0.28726221 -0.35516,-0.38649824 -0.161912,-0.099236 -0.360384,-0.099236 -0.240255,0 -0.40739,0.13057373 -0.167134,0.12535078 -0.240255,0.39694415 -0.07312,0.2663704 -0.07312,1.3840815 v 0.3447147 h 1.232616 v 0.3760523 z m 2.229154,1.4258651 q -0.0052,1.0654817 0.517072,1.6713438 0.522295,0.6058621 1.227393,0.6058621 0.470066,0 0.814781,-0.2559245 0.349937,-0.2611475 0.58497,-0.8879014 l 0.161911,0.104459 q -0.109682,0.715544 -0.637199,1.3057373 -0.527518,0.5849703 -1.321407,0.5849703 -0.861786,0 -1.478094,-0.6685375 -0.611085,-0.6737604 -0.611085,-1.8071404 0,-1.2273931 0.626754,-1.9115994 0.631976,-0.6894293 1.582553,-0.6894293 0.804334,0 1.321406,0.5327408 0.517072,0.5275179 0.517072,1.4154192 z m 0,-0.302931 h 2.214531 Q 35.524326,3.8642911 35.440759,3.6762649 35.310185,3.3837797 35.049038,3.2166454 34.793113,3.049511 34.511074,3.049511 q -0.433505,0 -0.778219,0.3394917 -0.339492,0.3342687 -0.396945,0.9349079 z m 6.7679,-1.6400061 V 4.3134647 H 39.931452 Q 39.73298,3.5456912 39.419603,3.2688749 39.111449,2.9920585 38.630938,2.9920585 q -0.365606,0 -0.590193,0.1932492 -0.224587,0.1932491 -0.224587,0.4282818 0,0.2924852 0.167134,0.5014031 0.161912,0.2141409 0.658092,0.4543966 l 0.762551,0.3708294 q 1.060258,0.517072 1.060258,1.3631897 0,0.6528687 -0.49618,1.0550358 -0.490957,0.3969441 -1.102042,0.3969441 -0.438728,0 -1.002806,-0.1566885 -0.172358,-0.052229 -0.28204,-0.052229 -0.120128,0 -0.188026,0.1357966 H 37.220742 V 5.9743625 h 0.172357 q 0.146243,0.7312129 0.558856,1.1020423 0.412613,0.3708294 0.924462,0.3708294 0.360383,0 0.58497,-0.208918 0.22981,-0.2141409 0.22981,-0.511849 0,-0.3603835 -0.255925,-0.6058621 Q 39.184571,5.8751265 38.427243,5.4990742 37.669915,5.1230218 37.434883,4.8200908 37.19985,4.5223827 37.19985,4.0679861 q 0,-0.5901933 0.402167,-0.9871374 0.40739,-0.3969442 1.049813,-0.3969442 0.282039,0 0.684206,0.1201279 0.266371,0.078344 0.355161,0.078344 0.08357,0 0.130573,-0.036561 0.04701,-0.036561 0.109682,-0.1619115 z m 2.192593,-1.431088 v 1.5721077 h 1.117712 v 0.3656064 h -1.117712 v 3.1024318 q 0,0.4648425 0.130574,0.6267539 0.135797,0.1619115 0.344715,0.1619115 0.172357,0 0.334269,-0.104459 0.161911,-0.1096819 0.250701,-0.3185999 h 0.203695 q -0.182803,0.511849 -0.517072,0.7729965 -0.334269,0.2559245 -0.689429,0.2559245 -0.240256,0 -0.470066,-0.1305738 Q 41.653981,7.4211195 41.544299,7.1756409 41.434617,6.9249393 41.434617,6.4078673 V 3.1905306 H 40.677289 V 3.0181733 q 0.287262,-0.1149049 0.58497,-0.3864982 0.302932,-0.2768164 0.537964,-0.6528687 0.120128,-0.1984721 0.334269,-0.7259899 z m 2.317943,5.343077 q 0.245479,0 0.412613,0.1723573 0.167135,0.1671344 0.167135,0.4073901 0,0.2402556 -0.172358,0.4126129 -0.167134,0.1671344 -0.40739,0.1671344 -0.240255,0 -0.412613,-0.1671344 -0.167134,-0.1723573 -0.167134,-0.4126129 0,-0.2454787 0.167134,-0.412613 0.172358,-0.1671344 0.412613,-0.1671344 z m 5.467387,-0.8043342 q -0.193249,0.9453538 -0.757328,1.4572028 -0.564078,0.5066261 -1.248285,0.5066261 -0.81478,0 -1.420642,-0.6842063 -0.605862,-0.6842064 -0.605862,-1.848924 0,-1.1281571 0.668537,-1.8332552 0.673761,-0.7050982 1.613892,-0.7050982 0.705098,0 1.159494,0.3760524 0.454397,0.3708294 0.454397,0.7729965 0,0.198472 -0.130574,0.3238228 -0.12535,0.1201279 -0.35516,0.1201279 -0.308154,0 -0.464843,-0.1984721 Q 48.906569,3.96875 48.875231,3.660596 48.849117,3.352442 48.666313,3.1905306 48.48351,3.0338421 48.159687,3.0338421 q -0.522294,0 -0.840894,0.3864983 -0.423059,0.511849 -0.423059,1.3527438 0,0.8565637 0.417836,1.5146553 0.423059,0.6528686 1.138603,0.6528686 0.511849,0 0.919239,-0.3499376 0.287262,-0.2402556 0.558855,-0.8722325 z M 52.143751,0.18211188 V 6.5279952 q 0,0.4491736 0.06267,0.5954162 0.0679,0.1462425 0.203695,0.2245868 0.135797,0.073121 0.506626,0.073121 V 7.6091456 H 50.571643 V 7.4211195 q 0.329046,0 0.449174,-0.067898 0.120128,-0.067898 0.188026,-0.2245868 0.0679,-0.1566885 0.0679,-0.6006391 V 2.1825014 q 0,-0.8095571 -0.03656,-0.9923603 -0.03656,-0.1880262 -0.120128,-0.25592454 -0.07834,-0.0678983 -0.203695,-0.0678983 -0.135797,0 -0.344715,0.0835672 l -0.08879,-0.18280322 1.425865,-0.58497031 z"
       id="text1"
       aria-label="aromasfest.cl" />
  </g>
</svg>
